<svg  viewBox="0 0 42 45" fill="none" xmlns="http://www.w3.org/2000/svg">
<path d="M20.7381 3.46155C13.7586 3.46155 8.04812 9.17309 8.04812 16.1539C8.04812 20.3508 10.1145 24.0865 13.2701 26.4008C7.69279 29.1677 3.81812 34.9046 3.81812 41.5385H8.04812C8.04812 34.5069 13.7079 28.8462 20.7381 28.8462C27.7684 28.8462 33.4281 34.5069 33.4281 41.5385H37.6581C37.6581 34.5069 35.5431 33.3414 35.5431 33.3414C33.8542 30.34 31.2963 27.9204 28.2062 26.4008C29.821 25.2239 31.1355 23.6826 32.0428 21.9022C32.9502 20.1217 33.4248 18.1523 33.4281 16.1539C33.4281 9.17309 27.7176 3.46155 20.7381 3.46155ZM20.7381 7.69232C25.4398 7.69232 29.1981 11.4514 29.1981 16.1539C29.1981 20.8564 25.4398 24.6154 20.7381 24.6154C16.0365 24.6154 12.2781 20.8564 12.2781 16.1539C12.2781 11.4514 16.0365 7.69232 20.7381 7.69232Z" fill="#472723" fill-opacity="0.9"/>
<line x1="32" y1="20" x2="32" stroke="#92DEC5" stroke-width="4"/>
<line x1="22" y1="10" x2="42" y2="10" stroke="#92DEC5" stroke-width="4"/>
</svg>
