<svg  viewBox="0 0 92 45" fill="none" xmlns="http://www.w3.org/2000/svg">
<g clip-path="url(#clip0_208_1254)">
<path d="M15.8978 3C8.91828 3 3.20778 8.71154 3.20778 15.6923C3.20778 19.8892 5.27414 23.625 8.42972 25.9392C2.85246 28.7062 -1.02222 34.4431 -1.02222 41.0769H3.20778C3.20778 34.0454 8.86752 28.3846 15.8978 28.3846C22.928 28.3846 28.5878 34.0454 28.5878 41.0769H32.8178C32.8178 34.0454 30.7028 32.8798 30.7028 32.8798C29.0138 29.8785 26.456 27.4588 23.3658 25.9392C24.9807 24.7623 26.2951 23.2211 27.2025 21.4406C28.1098 19.6601 28.5844 17.6907 28.5878 15.6923C28.5878 8.71154 22.8773 3 15.8978 3ZM15.8978 7.23077C20.5994 7.23077 24.3578 10.9898 24.3578 15.6923C24.3578 20.3948 20.5994 24.1538 15.8978 24.1538C11.1961 24.1538 7.43778 20.3948 7.43778 15.6923C7.43778 10.9898 11.1961 7.23077 15.8978 7.23077Z" fill="#472723" fill-opacity="0.9"/>
<path d="M41.92 3C34.9405 3 29.23 8.71154 29.23 15.6923C29.23 19.8892 31.2964 23.625 34.4519 25.9392C28.8747 28.7062 25 34.4431 25 41.0769H29.23C29.23 34.0454 34.8897 28.3846 41.92 28.3846C48.9503 28.3846 54.61 34.0454 54.61 41.0769H58.84C58.84 34.0454 56.725 32.8798 56.725 32.8798C55.0361 29.8785 52.4782 27.4588 49.3881 25.9392C51.0029 24.7623 52.3174 23.2211 53.2247 21.4406C54.132 19.6601 54.6067 17.6907 54.61 15.6923C54.61 8.71154 48.8995 3 41.92 3ZM41.92 7.23077C46.6216 7.23077 50.38 10.9898 50.38 15.6923C50.38 20.3948 46.6216 24.1538 41.92 24.1538C37.2184 24.1538 33.46 20.3948 33.46 15.6923C33.46 10.9898 37.2184 7.23077 41.92 7.23077Z" fill="#472723" fill-opacity="0.9"/>
<path d="M67.92 3C60.9405 3 55.23 8.71154 55.23 15.6923C55.23 19.8892 57.2964 23.625 60.4519 25.9392C54.8747 28.7062 51 34.4431 51 41.0769H55.23C55.23 34.0454 60.8897 28.3846 67.92 28.3846C74.9503 28.3846 80.61 34.0454 80.61 41.0769H84.84C84.84 34.0454 82.725 32.8798 82.725 32.8798C81.0361 29.8785 78.4782 27.4588 75.3881 25.9392C77.0029 24.7623 78.3174 23.2211 79.2247 21.4406C80.132 19.6601 80.6067 17.6907 80.61 15.6923C80.61 8.71154 74.8995 3 67.92 3ZM67.92 7.23077C72.6216 7.23077 76.38 10.9898 76.38 15.6923C76.38 20.3948 72.6216 24.1538 67.92 24.1538C63.2184 24.1538 59.46 20.3948 59.46 15.6923C59.46 10.9898 63.2184 7.23077 67.92 7.23077Z" fill="#472723" fill-opacity="0.9"/>
<line x1="81.8223" y1="20" x2="81.8223" stroke="#92DEC5" stroke-width="4"/>
<line x1="71.5557" y1="10" x2="92.0001" y2="10" stroke="#92DEC5" stroke-width="4"/>
</g>
<defs>
<clipPath id="clip0_208_1254">
<rect width="92" height="45" fill="white"/>
</clipPath>
</defs>
</svg>
