<svg  viewBox="0 0 45 45" fill="none" xmlns="http://www.w3.org/2000/svg">
<path d="M22.5 30C25.6066 30 28.125 27.4816 28.125 24.375C28.125 21.2684 25.6066 18.75 22.5 18.75C19.3934 18.75 16.875 21.2684 16.875 24.375C16.875 27.4816 19.3934 30 22.5 30Z" stroke="#92DEC5" stroke-width="3" stroke-linecap="round" stroke-linejoin="round"/>
<path d="M22.5 7.5C21.5 7.5 17.7758 7.69754 17.4242 8.04918C17.0725 8.40081 15 11.5027 15 12L9.375 13.125C8.38044 13.125 7.42661 13.5201 6.72335 14.2233C6.02009 14.9266 5.625 15.8804 5.625 16.875V33.75C5.625 34.7446 6.02009 35.6984 6.72335 36.4016C7.42661 37.1049 8.38044 37.5 9.375 37.5H35.625C36.6196 37.5 37.5734 37.1049 38.2766 36.4016C38.9799 35.6984 39.375 34.7446 39.375 33.75V20.625M28.125 11.25H39.375M33.75 5.625V16.875" stroke="#92DEC5" stroke-width="3" stroke-linecap="round" stroke-linejoin="round"/>
</svg>
