<svg width="50" height="50" viewBox="0 0 50 50" fill="none" xmlns="http://www.w3.org/2000/svg">
<path fill-rule="evenodd" clip-rule="evenodd" d="M36.2582 32.851C36.0603 30.6271 35.6603 28.6271 34.7687 27.1208L37.9468 23.9427C39.5813 23.8368 41.109 23.0933 42.201 21.8725C43.293 20.6516 43.862 19.0508 43.7857 17.4146C43.7094 15.7784 42.9938 14.2375 41.7929 13.1236C40.592 12.0097 39.0018 11.4117 37.3645 11.4583C36.5791 8.50313 32.5082 6.25 27.6041 6.25C23.2666 6.25 19.5801 8.0125 18.2447 10.4656C14.4145 10.8344 11.4583 13.2365 11.4583 16.1458C11.4583 19.3104 14.9562 21.875 19.2708 21.875C21.3468 21.875 23.2333 21.2812 24.6333 20.3125C25.2853 21.5207 26.0179 22.6838 26.826 23.7937C27.6676 24.9396 28.6905 26.1271 29.8405 27.0385C30.8166 27.8104 31.9541 28.4385 33.201 28.6052C33.7093 29.674 34.0155 31.1469 34.1822 33.0354C34.3749 35.1927 34.3749 37.7458 34.3749 40.625V41.6667H36.4582V40.5885C36.4582 37.7521 36.4582 35.1094 36.2582 32.851V32.851ZM33.352 18.1083C33.3236 17.8093 33.2309 17.5199 33.0802 17.26C32.9294 17.0002 32.7243 16.776 32.4788 16.6028C32.2333 16.4297 31.9533 16.3117 31.658 16.2569C31.3626 16.2021 31.0589 16.2118 30.7676 16.2854C29.7328 16.5422 28.6703 16.6702 27.6041 16.6667C27.2103 16.6667 26.8239 16.65 26.4468 16.6177C26.078 16.5863 25.7075 16.6537 25.3733 16.8129C25.0392 16.9722 24.7535 17.2176 24.5457 17.524C23.7437 18.7083 21.8228 19.7917 19.2708 19.7917C17.5103 19.7917 15.9999 19.2656 14.9791 18.5167C13.9562 17.7667 13.5416 16.9052 13.5416 16.1458C13.5416 14.7958 15.1176 12.8594 18.4437 12.5396C18.7827 12.507 19.1087 12.3918 19.3929 12.204C19.6771 12.0162 19.9109 11.7616 20.0739 11.4625C20.8958 9.95312 23.6562 8.33333 27.6041 8.33333C29.753 8.33333 31.6489 8.82917 33.0395 9.57917C34.4603 10.3458 35.1541 11.2562 35.3499 11.9937C35.4696 12.4453 35.7377 12.8436 36.111 13.1245C36.4843 13.4054 36.9412 13.5527 37.4082 13.5427L37.4999 13.5417C38.1639 13.5418 38.8183 13.7007 39.4085 14.005C39.9986 14.3093 40.5075 14.7502 40.8928 15.2911C41.278 15.8319 41.5284 16.457 41.6231 17.1142C41.7177 17.7714 41.654 18.4418 41.4371 19.0693C41.2202 19.6969 40.8564 20.2636 40.3762 20.7221C39.8959 21.1806 39.313 21.5177 38.676 21.7053C38.039 21.8929 37.3665 21.9255 36.7143 21.8005C36.0622 21.6754 35.4494 21.3963 34.927 20.9865L34.577 20.6781C33.8784 19.9928 33.4445 19.0826 33.352 18.1083V18.1083ZM32.2062 21.0323C31.6883 20.2081 31.3705 19.2742 31.278 18.3052C30.6239 18.4708 29.9353 18.5927 29.2207 18.6667C28.2401 18.7684 27.2521 18.7775 26.2697 18.6937C26.2442 18.7316 26.2181 18.7691 26.1916 18.8063C26.3041 19.0229 26.452 19.3021 26.6333 19.626C27.2287 20.6978 27.8926 21.7302 28.6207 22.7167V22.5646C29.7718 22.5646 30.9801 21.9427 31.9822 21.2021C32.0593 21.1458 32.1343 21.0896 32.2062 21.0323V21.0323ZM30.0885 24.4531C30.428 24.801 30.776 25.1229 31.1332 25.4052C31.6468 25.8115 32.1478 26.1156 32.6332 26.3115L35.3614 23.5823C34.7231 23.3496 34.1271 23.0143 33.5968 22.5896C33.477 22.6854 33.351 22.7823 33.2197 22.8792C32.4114 23.475 31.3218 24.1344 30.0885 24.4531V24.4531Z" fill="#472723" fill-opacity="0.9"/>
<path fill-rule="evenodd" clip-rule="evenodd" d="M18.7522 26.5625C18.7525 26.9045 18.6855 27.2432 18.555 27.5593C18.4244 27.8754 18.2329 28.1626 17.9913 28.4047C17.7497 28.6467 17.4628 28.8389 17.147 28.97C16.8312 29.1012 16.4926 29.1689 16.1506 29.1693C15.8087 29.1696 15.4699 29.1026 15.1539 28.972C14.8378 28.8415 14.5505 28.6499 14.3085 28.4084C14.0664 28.1668 13.8743 27.8799 13.7431 27.5641C13.6119 27.2483 13.5442 26.9097 13.5439 26.5677C13.5432 25.877 13.8169 25.2144 14.3048 24.7255C14.7927 24.2367 15.4548 23.9616 16.1454 23.9609C16.8361 23.9602 17.4988 24.234 17.9876 24.7218C18.4765 25.2097 18.7515 25.8718 18.7522 26.5625V26.5625ZM16.6689 26.5646C16.6689 26.633 16.6555 26.7007 16.6294 26.7639C16.6033 26.8272 16.565 26.8846 16.5167 26.933C16.4684 26.9814 16.411 27.0199 16.3478 27.0461C16.2847 27.0723 16.2169 27.0859 16.1486 27.0859C16.0802 27.086 16.0124 27.0726 15.9492 27.0465C15.886 27.0204 15.8285 26.9821 15.7801 26.9338C15.7317 26.8854 15.6933 26.8281 15.667 26.7649C15.6408 26.7017 15.6273 26.634 15.6272 26.5656C15.6271 26.4275 15.6818 26.295 15.7794 26.1972C15.877 26.0994 16.0094 26.0444 16.1475 26.0443C16.2856 26.0441 16.4182 26.0989 16.5159 26.1965C16.6137 26.294 16.6687 26.4265 16.6689 26.5646V26.5646ZM11.4605 30.7292C11.4609 31.0712 11.3939 31.4099 11.2633 31.7259C11.1327 32.042 10.9412 32.3293 10.6996 32.5714C10.4581 32.8134 10.1712 33.0055 9.85534 33.1367C9.53952 33.2679 9.20095 33.3356 8.85897 33.3359C8.51699 33.3363 8.17828 33.2693 7.8622 33.1387C7.54612 33.0081 7.25884 32.8166 7.01678 32.575C6.77472 32.3335 6.58261 32.0466 6.45143 31.7307C6.32024 31.4149 6.25254 31.0764 6.2522 30.7344C6.25151 30.0437 6.52521 29.3811 7.0131 28.8922C7.50099 28.4033 8.16309 28.1283 8.85376 28.1276C9.54443 28.1269 10.2071 28.4006 10.6959 28.8885C11.1848 29.3764 11.4598 30.0385 11.4605 30.7292V30.7292ZM9.3772 30.7313C9.3772 30.8694 9.32233 31.0019 9.22465 31.0995C9.12698 31.1972 8.9945 31.2521 8.85637 31.2521C8.71823 31.2521 8.58576 31.1972 8.48808 31.0995C8.39041 31.0019 8.33553 30.8694 8.33553 30.7313C8.33553 30.5931 8.39041 30.4606 8.48808 30.363C8.58576 30.2653 8.71823 30.2104 8.85637 30.2104C8.9945 30.2104 9.12698 30.2653 9.22465 30.363C9.32233 30.4606 9.3772 30.5931 9.3772 30.7313ZM26.5668 33.3354C27.2575 33.3349 27.9196 33.06 28.4076 32.5712C28.8956 32.0824 29.1694 31.4198 29.1689 30.7292C29.1683 30.0385 28.8934 29.3763 28.4047 28.8884C27.9159 28.4004 27.2533 28.1265 26.5626 28.1271C25.8719 28.1276 25.2098 28.4025 24.7218 28.8913C24.2338 29.3801 23.96 30.0427 23.9605 30.7333C23.9611 31.424 24.236 32.0862 24.7247 32.5741C25.2135 33.0621 25.8761 33.336 26.5668 33.3354V33.3354ZM26.5647 31.2521C26.7028 31.2521 26.8353 31.1972 26.933 31.0995C27.0307 31.0019 27.0855 30.8694 27.0855 30.7313C27.0855 30.5931 27.0307 30.4606 26.933 30.363C26.8353 30.2653 26.7028 30.2104 26.5647 30.2104C26.4266 30.2104 26.2941 30.2653 26.1964 30.363C26.0987 30.4606 26.0439 30.5931 26.0439 30.7313C26.0439 30.8694 26.0987 31.0019 26.1964 31.0995C26.2941 31.1972 26.4266 31.2521 26.5647 31.2521Z" fill="#472723" fill-opacity="0.9"/>
<path d="M15.625 30.2084C16.1775 30.2084 16.7074 30.4279 17.0981 30.8186C17.4888 31.2093 17.7083 31.7392 17.7083 32.2917V34.375H19.7917C20.3442 34.375 20.8741 34.5945 21.2648 34.9852C21.6555 35.3759 21.875 35.9058 21.875 36.4584C21.875 37.0109 21.6555 37.5408 21.2648 37.9315C20.8741 38.3222 20.3442 38.5417 19.7917 38.5417H15.625C15.0725 38.5417 14.5426 38.3222 14.1519 37.9315C13.7612 37.5408 13.5417 37.0109 13.5417 36.4584V32.2917C13.5417 31.7392 13.7612 31.2093 14.1519 30.8186C14.5426 30.4279 15.0725 30.2084 15.625 30.2084ZM10.4167 36.4584C10.4167 35.9058 10.1972 35.3759 9.80647 34.9852C9.41577 34.5945 8.88587 34.375 8.33333 34.375C7.7808 34.375 7.25089 34.5945 6.86019 34.9852C6.46949 35.3759 6.25 35.9058 6.25 36.4584V41.6667C6.25 42.2192 6.46949 42.7491 6.86019 43.1398C7.25089 43.5305 7.7808 43.75 8.33333 43.75H12.5C13.0525 43.75 13.5824 43.5305 13.9731 43.1398C14.3638 42.7491 14.5833 42.2192 14.5833 41.6667C14.5833 41.1142 14.3638 40.5843 13.9731 40.1936C13.5824 39.8029 13.0525 39.5834 12.5 39.5834H10.4167V36.4584ZM27.0833 34.375C26.5308 34.375 26.0009 34.5945 25.6102 34.9852C25.2195 35.3759 25 35.9058 25 36.4584V39.5834H22.9167C22.3641 39.5834 21.8342 39.8029 21.4435 40.1936C21.0528 40.5843 20.8333 41.1142 20.8333 41.6667C20.8333 42.2192 21.0528 42.7491 21.4435 43.1398C21.8342 43.5305 22.3641 43.75 22.9167 43.75H27.0833C27.6359 43.75 28.1658 43.5305 28.5565 43.1398C28.9472 42.7491 29.1667 42.2192 29.1667 41.6667V36.4584C29.1667 35.9058 28.9472 35.3759 28.5565 34.9852C28.1658 34.5945 27.6359 34.375 27.0833 34.375Z" fill="#472723" fill-opacity="0.9"/>
</svg>
