<svg width="11" height="13" viewBox="0 0 11 13" fill="none" xmlns="http://www.w3.org/2000/svg">
<path d="M5.49996 0.205383C6.01425 0.205337 6.50897 0.402527 6.88221 0.756334C7.25545 1.11014 7.47879 1.59362 7.50622 2.10717L7.50889 2.21431H10.4553C10.5571 2.21434 10.6551 2.25301 10.7295 2.32251C10.8039 2.39201 10.8491 2.48715 10.8561 2.58871C10.863 2.69027 10.8311 2.79068 10.7669 2.86965C10.7026 2.94862 10.6108 3.00026 10.51 3.01413L10.4553 3.01788H9.888L9.23443 11.082C9.19365 11.5851 8.96499 12.0544 8.59395 12.3965C8.2229 12.7387 7.73666 12.9286 7.23193 12.9286H3.768C3.26327 12.9286 2.77703 12.7387 2.40598 12.3965C2.03494 12.0544 1.80628 11.5851 1.7655 11.082L1.11139 3.01788H0.544608C0.447516 3.01788 0.353711 2.98272 0.280538 2.9189C0.207366 2.85508 0.159777 2.76693 0.146572 2.67074L0.142822 2.6161C0.142826 2.51901 0.177988 2.4252 0.241805 2.35203C0.305621 2.27886 0.393776 2.23127 0.489965 2.21806L0.544608 2.21431H3.49104C3.49104 1.68151 3.70269 1.17053 4.07944 0.793785C4.45619 0.417038 4.96716 0.205383 5.49996 0.205383V0.205383ZM9.08229 3.01788H1.91764L2.56639 11.0172C2.59089 11.319 2.72811 11.6006 2.95076 11.8059C3.1734 12.0111 3.46516 12.1251 3.768 12.125H7.23193C7.53477 12.1251 7.82653 12.0111 8.04917 11.8059C8.27182 11.6006 8.40904 11.319 8.43354 11.0172L9.08175 3.01788H9.08229ZM4.29461 5.02681C4.3917 5.02682 4.48551 5.06198 4.55868 5.12579C4.63185 5.18961 4.67944 5.27776 4.69264 5.37395L4.69639 5.4286V9.71431C4.69636 9.81611 4.65769 9.9141 4.58819 9.98849C4.5187 10.0629 4.42356 10.1081 4.32199 10.115C4.22043 10.122 4.12002 10.0901 4.04105 10.0259C3.96209 9.96162 3.91045 9.8698 3.89657 9.76895L3.89282 9.71431V5.4286C3.89282 5.32204 3.93515 5.21984 4.0105 5.14449C4.08585 5.06914 4.18805 5.02681 4.29461 5.02681V5.02681ZM6.70532 5.02681C6.80241 5.02682 6.89622 5.06198 6.96939 5.12579C7.04256 5.18961 7.09015 5.27776 7.10336 5.37395L7.10711 5.4286V9.71431C7.10708 9.81611 7.06841 9.9141 6.99891 9.98849C6.92941 10.0629 6.83427 10.1081 6.73271 10.115C6.63115 10.122 6.53074 10.0901 6.45177 10.0259C6.3728 9.96162 6.32116 9.8698 6.30729 9.76895L6.30354 9.71431V5.4286C6.30354 5.32204 6.34587 5.21984 6.42122 5.14449C6.49657 5.06914 6.59876 5.02681 6.70532 5.02681ZM5.49996 1.00895C5.19454 1.00892 4.90049 1.12483 4.67724 1.33326C4.45399 1.54169 4.31819 1.8271 4.29729 2.13181L4.29461 2.21431H6.70532L6.70264 2.13181C6.68174 1.8271 6.54594 1.54169 6.32269 1.33326C6.09944 1.12483 5.80539 1.00892 5.49996 1.00895V1.00895Z" fill="#472723" fill-opacity="0.72"/>
</svg>
