<svg width="18" height="18" viewBox="0 0 18 18" fill="none" xmlns="http://www.w3.org/2000/svg">
<path d="M9.00011 1.44644C9.61725 1.44639 10.2109 1.68301 10.6588 2.10758C11.1067 2.53215 11.3747 3.11232 11.4076 3.72858L11.4108 3.85716H14.9465C15.0687 3.85719 15.1863 3.9036 15.2755 3.987C15.3648 4.07039 15.4191 4.18456 15.4274 4.30644C15.4357 4.42831 15.3975 4.5488 15.3204 4.64356C15.2433 4.73832 15.1331 4.80029 15.0121 4.81694L14.9465 4.82144H14.2657L13.4815 14.4984C13.4325 15.1021 13.1581 15.6652 12.7129 16.0758C12.2676 16.4864 11.6841 16.7143 11.0785 16.7143H6.92175C6.31608 16.7143 5.73258 16.4864 5.28733 16.0758C4.84207 15.6652 4.56769 15.1021 4.51875 14.4984L3.73382 4.82144H3.05368C2.93717 4.82144 2.8246 4.77924 2.73679 4.70266C2.64899 4.62608 2.59188 4.5203 2.57603 4.40487L2.57153 4.3393C2.57154 4.22279 2.61373 4.11022 2.69031 4.02241C2.76689 3.93461 2.87268 3.8775 2.9881 3.86166L3.05368 3.85716H6.58939C6.58939 3.21779 6.84338 2.60462 7.29547 2.15252C7.74757 1.70043 8.36074 1.44644 9.00011 1.44644V1.44644ZM13.2989 4.82144H4.70132L5.47982 14.4206C5.50921 14.7828 5.67388 15.1207 5.94105 15.367C6.20823 15.6133 6.55834 15.7501 6.92175 15.75H11.0785C11.4419 15.7501 11.792 15.6133 12.0592 15.367C12.3263 15.1207 12.491 14.7828 12.5204 14.4206L13.2982 4.82144H13.2989ZM7.55368 7.23216C7.67019 7.23216 7.78275 7.27435 7.87056 7.35093C7.95837 7.42751 8.01547 7.5333 8.03132 7.64873L8.03582 7.7143V12.8572C8.03578 12.9793 7.98938 13.0969 7.90598 13.1862C7.82258 13.2754 7.70841 13.3297 7.58654 13.338C7.46467 13.3464 7.34417 13.3081 7.24941 13.231C7.15465 13.1539 7.09268 13.0437 7.07603 12.9227L7.07153 12.8572V7.7143C7.07153 7.58643 7.12233 7.46379 7.21275 7.37337C7.30317 7.28295 7.4258 7.23216 7.55368 7.23216V7.23216ZM10.4465 7.23216C10.563 7.23216 10.6756 7.27435 10.7634 7.35093C10.8512 7.42751 10.9083 7.5333 10.9242 7.64873L10.9287 7.7143V12.8572C10.9286 12.9793 10.8822 13.0969 10.7988 13.1862C10.7154 13.2754 10.6013 13.3297 10.4794 13.338C10.3575 13.3464 10.237 13.3081 10.1423 13.231C10.0475 13.1539 9.98554 13.0437 9.96889 12.9227L9.96439 12.8572V7.7143C9.96439 7.58643 10.0152 7.46379 10.1056 7.37337C10.196 7.28295 10.3187 7.23216 10.4465 7.23216ZM9.00011 2.41073C8.6336 2.41068 8.28073 2.54977 8.01284 2.79989C7.74494 3.05001 7.58198 3.39251 7.55689 3.75816L7.55368 3.85716H10.4465L10.4433 3.75816C10.4182 3.39251 10.2553 3.05001 9.98738 2.79989C9.71948 2.54977 9.36662 2.41068 9.00011 2.41073V2.41073Z" fill="#472723" fill-opacity="0.72"/>
</svg>
