<svg width="45" height="45" viewBox="0 0 45 45" fill="none" xmlns="http://www.w3.org/2000/svg">
<path d="M17.1974 30.4538L22.4999 25.1513L27.8024 30.4538L30.4536 27.8025L25.1511 22.5L30.4536 17.1975L27.8024 14.5463L22.4999 19.8488L17.1974 14.5463L14.5461 17.1975L19.8486 22.5L14.5461 27.8025L17.1974 30.4538Z" fill="#92DEC5"/>
<path d="M22.5 41.25C32.8387 41.25 41.25 32.8387 41.25 22.5C41.25 12.1613 32.8387 3.75 22.5 3.75C12.1613 3.75 3.75 12.1613 3.75 22.5C3.75 32.8387 12.1613 41.25 22.5 41.25ZM22.5 7.5C30.7706 7.5 37.5 14.2294 37.5 22.5C37.5 30.7706 30.7706 37.5 22.5 37.5C14.2294 37.5 7.5 30.7706 7.5 22.5C7.5 14.2294 14.2294 7.5 22.5 7.5Z" fill="#92DEC5"/>
</svg>
