<svg width="50" height="50" viewBox="0 0 50 50" fill="none" xmlns="http://www.w3.org/2000/svg">
<path d="M34.3207 11.2667L38.7332 15.6771L34.3207 11.2667ZM37.1582 7.38126L25.2269 19.3125C24.6104 19.9281 24.19 20.7125 24.0186 21.5667L22.9165 27.0833L28.4332 25.9792C29.2873 25.8083 30.0707 25.3896 30.6873 24.7729L42.6186 12.8417C42.9771 12.4831 43.2615 12.0575 43.4556 11.589C43.6496 11.1206 43.7495 10.6185 43.7495 10.1115C43.7495 9.60442 43.6496 9.10234 43.4556 8.63389C43.2615 8.16544 42.9771 7.73979 42.6186 7.38126C42.26 7.02272 41.8344 6.73831 41.366 6.54427C40.8975 6.35024 40.3954 6.25037 39.8884 6.25037C39.3813 6.25037 38.8792 6.35024 38.4108 6.54427C37.9423 6.73831 37.5167 7.02272 37.1582 7.38126V7.38126Z" stroke="#92DEC5" stroke-width="4" stroke-linecap="round" stroke-linejoin="round"/>
<path d="M39.5833 31.25V37.5C39.5833 38.605 39.1443 39.6648 38.3629 40.4462C37.5815 41.2276 36.5217 41.6666 35.4166 41.6666H12.4999C11.3949 41.6666 10.335 41.2276 9.55364 40.4462C8.77224 39.6648 8.33325 38.605 8.33325 37.5V14.5833C8.33325 13.4782 8.77224 12.4184 9.55364 11.637C10.335 10.8556 11.3949 10.4166 12.4999 10.4166H18.7499" stroke="#92DEC5" stroke-width="4" stroke-linecap="round" stroke-linejoin="round"/>
</svg>
