<svg viewBox="0 0 45 45" fill="none" xmlns="http://www.w3.org/2000/svg">
<path d="M29.5312 29.5312C31.0843 29.5312 32.3438 31.1054 32.3438 33.0469C32.3438 34.9884 31.0843 36.5625 29.5312 36.5625H5.625C4.07197 36.5625 2.8125 34.9884 2.8125 33.0469C2.8125 31.1054 4.07197 29.5312 5.625 29.5312M28.3008 36.5625C28.3008 39.6694 26.4858 42.1875 23.3789 42.1875H11.7773C8.67041 42.1875 6.85547 39.6694 6.85547 36.5625H28.3008Z" stroke="#472723" stroke-opacity="0.9" stroke-width="3" stroke-miterlimit="10" stroke-linecap="round"/>
<path d="M21.1816 9.84375L21.8355 15.4661M30.2344 29.5312H15.7597C15.5734 29.5313 15.3948 29.6053 15.2631 29.7369L12.905 32.095C12.8723 32.1277 12.8336 32.1536 12.7909 32.1713C12.7482 32.189 12.7025 32.1981 12.6562 32.1981C12.61 32.1981 12.5643 32.189 12.5216 32.1713C12.4789 32.1536 12.4402 32.1277 12.4075 32.095L10.0494 29.7369C9.91765 29.6053 9.73906 29.5313 9.55283 29.5312H4.92188C4.36243 29.5312 3.82591 29.309 3.43032 28.9134C3.03474 28.5178 2.8125 27.9813 2.8125 27.4219V27.4219C2.8125 26.8624 3.03474 26.3259 3.43032 25.9303C3.82591 25.5347 4.36243 25.3125 4.92188 25.3125H30.2344C30.7938 25.3125 31.3303 25.5347 31.7259 25.9303C32.1215 26.3259 32.3438 26.8624 32.3438 27.4219C32.3438 27.9813 32.1215 28.5178 31.7259 28.9134C31.3303 29.309 30.7938 29.5312 30.2344 29.5312ZM5.625 24.2578V24.2385C5.625 19.4045 9.58008 16.875 14.4141 16.875H20.7422C25.5762 16.875 29.5312 19.4238 29.5312 24.2578V24.2385L5.625 24.2578Z" stroke="#472723" stroke-opacity="0.9" stroke-width="3" stroke-miterlimit="10" stroke-linecap="round"/>
<path d="M22.5 42.1875H34.744C35.4536 42.1875 36.1369 41.9193 36.657 41.4366C37.1772 40.954 37.4956 40.2926 37.5486 39.5851L40.6934 9.84375" stroke="#472723" stroke-opacity="0.9" stroke-width="3" stroke-miterlimit="10" stroke-linecap="round"/>
<path d="M32.3438 9.84375L33.75 4.21875L37.8809 2.8125" stroke="#472723" stroke-opacity="0.9" stroke-width="3" stroke-linecap="round" stroke-linejoin="round"/>
<path d="M19.6875 9.84375H42.1875" stroke="#472723" stroke-opacity="0.9" stroke-width="3" stroke-miterlimit="10" stroke-linecap="round"/>
</svg>
