<svg width="57" height="25" viewBox="0 0 77 45" fill="none" xmlns="http://www.w3.org/2000/svg">
<path d="M23.8431 3.46155C16.8636 3.46155 11.1531 9.17309 11.1531 16.1539C11.1531 20.3508 13.2195 24.0865 16.375 26.4008C10.7978 29.1677 6.9231 34.9046 6.9231 41.5385H11.1531C11.1531 34.5069 16.8128 28.8462 23.8431 28.8462C30.8734 28.8462 36.5331 34.5069 36.5331 41.5385H40.7631C40.7631 34.5069 46.4228 28.8462 53.4531 28.8462C60.4834 28.8462 66.1431 34.5069 66.1431 41.5385H70.3731C70.3731 34.9025 66.4984 29.1677 60.9212 26.4008C62.536 25.2239 63.8505 23.6826 64.7578 21.9022C65.6651 20.1217 66.1398 18.1523 66.1431 16.1539C66.1431 9.17309 60.4326 3.46155 53.4531 3.46155C46.4736 3.46155 40.7631 9.17309 40.7631 16.1539C40.7631 20.3508 42.8295 24.0865 45.985 26.4008C42.8949 27.9204 40.337 30.34 38.6481 33.3414C36.9591 30.34 34.4013 27.9204 31.3112 26.4008C32.926 25.2239 34.2404 23.6826 35.1478 21.9022C36.0551 20.1217 36.5298 18.1523 36.5331 16.1539C36.5331 9.17309 30.8226 3.46155 23.8431 3.46155ZM23.8431 7.69232C28.5447 7.69232 32.3031 11.4514 32.3031 16.1539C32.3031 20.8564 28.5447 24.6154 23.8431 24.6154C19.1415 24.6154 15.3831 20.8564 15.3831 16.1539C15.3831 11.4514 19.1415 7.69232 23.8431 7.69232ZM53.4531 7.69232C58.1547 7.69232 61.9131 11.4514 61.9131 16.1539C61.9131 20.8564 58.1547 24.6154 53.4531 24.6154C48.7514 24.6154 44.9931 20.8564 44.9931 16.1539C44.9931 11.4514 48.7514 7.69232 53.4531 7.69232Z" fill="#472723" fill-opacity="0.9"/>
</svg>
