<svg width="60" height="50" viewBox="0 0 60 50" fill="none" xmlns="http://www.w3.org/2000/svg">
<path fill-rule="evenodd" clip-rule="evenodd" d="M25 4.16662C25.0005 3.73213 24.8379 3.3084 24.5351 2.95472C24.2323 2.60104 23.8043 2.3351 23.3112 2.19413C22.818 2.05316 22.2843 2.04421 21.7847 2.16852C21.2851 2.29284 20.8447 2.54421 20.525 2.88745L3.02503 21.6374C2.68364 22.0032 2.49829 22.4533 2.49829 22.9166C2.49829 23.38 2.68364 23.8301 3.02503 24.1958L20.525 42.9458C20.8447 43.289 21.2851 43.5404 21.7847 43.6647C22.2843 43.789 22.818 43.7801 23.3112 43.6391C23.8043 43.4981 24.2323 43.2322 24.5351 42.8785C24.8379 42.5248 25.0005 42.1011 25 41.6666V33.3541C38.4475 33.5874 44.9075 35.7145 48.1525 38.027C51.2375 40.225 51.8025 42.8104 52.39 45.5187L52.5425 46.2166C52.6547 46.716 52.982 47.164 53.4629 47.4764C53.9437 47.7887 54.545 47.9439 55.1535 47.9127C55.762 47.8814 56.3359 47.666 56.7671 47.3068C57.1984 46.9476 57.4572 46.4695 57.495 45.9625C57.9225 40.2375 57.28 31.9416 52.4275 25.002C47.7175 18.2666 39.235 13.0874 25 12.5458V4.16662Z" fill="#92DEC5"/>
</svg>
