<svg   viewBox="0 0 50 40" fill="none" xmlns="http://www.w3.org/2000/svg">
<path fill-rule="evenodd" clip-rule="evenodd" d="M20.8332 3.33332C20.8336 2.98573 20.6982 2.64675 20.4458 2.3638C20.1935 2.08085 19.8368 1.86811 19.4259 1.75533C19.0149 1.64255 18.5701 1.63539 18.1538 1.73484C17.7375 1.8343 17.3705 2.03539 17.1041 2.30998L2.52073 17.31C2.23624 17.6026 2.08179 17.9626 2.08179 18.3333C2.08179 18.704 2.23624 19.0641 2.52073 19.3567L17.1041 34.3567C17.3705 34.6312 17.7375 34.8323 18.1538 34.9318C18.5701 35.0312 19.0149 35.0241 19.4259 34.9113C19.8368 34.7985 20.1935 34.5858 20.4458 34.3028C20.6982 34.0199 20.8336 33.6809 20.8332 33.3333V26.6833C32.0395 26.87 37.4228 28.5717 40.127 30.4217C42.6978 32.18 43.1687 34.2483 43.6582 36.415L43.7853 36.9733C43.8788 37.3728 44.1516 37.7312 44.5523 37.9811C44.953 38.231 45.454 38.3551 45.9611 38.3302C46.4682 38.3052 46.9465 38.1328 47.3058 37.8455C47.6652 37.5581 47.8809 37.1757 47.9124 36.77C48.2687 32.19 47.7332 25.5533 43.6895 20.0017C39.7645 14.6133 32.6957 10.47 20.8332 10.0367V3.33332Z" fill="#92DEC5"/>
</svg>
