<svg  viewBox="0 0 90 45" fill="none" xmlns="http://www.w3.org/2000/svg">
<path d="M17.92 3C10.9405 3 5.23 8.71154 5.23 15.6923C5.23 19.8892 7.29635 23.625 10.4519 25.9392C4.87468 28.7062 1 34.4431 1 41.0769H5.23C5.23 34.0454 10.8897 28.3846 17.92 28.3846C24.9503 28.3846 30.61 34.0454 30.61 41.0769H34.84C34.84 34.0454 32.725 32.8798 32.725 32.8798C31.0361 29.8785 28.4782 27.4588 25.3881 25.9392C27.0029 24.7623 28.3174 23.2211 29.2247 21.4406C30.132 19.6601 30.6067 17.6907 30.61 15.6923C30.61 8.71154 24.8995 3 17.92 3ZM17.92 7.23077C22.6216 7.23077 26.38 10.9898 26.38 15.6923C26.38 20.3948 22.6216 24.1538 17.92 24.1538C13.2184 24.1538 9.46 20.3948 9.46 15.6923C9.46 10.9898 13.2184 7.23077 17.92 7.23077Z" fill="#472723" fill-opacity="0.9"/>
<path d="M43.92 3C36.9405 3 31.23 8.71154 31.23 15.6923C31.23 19.8892 33.2964 23.625 36.4519 25.9392C30.8747 28.7062 27 34.4431 27 41.0769H31.23C31.23 34.0454 36.8897 28.3846 43.92 28.3846C50.9503 28.3846 56.61 34.0454 56.61 41.0769H60.84C60.84 34.0454 58.725 32.8798 58.725 32.8798C57.0361 29.8785 54.4782 27.4588 51.3881 25.9392C53.0029 24.7623 54.3174 23.2211 55.2247 21.4406C56.132 19.6601 56.6067 17.6907 56.61 15.6923C56.61 8.71154 50.8995 3 43.92 3ZM43.92 7.23077C48.6216 7.23077 52.38 10.9898 52.38 15.6923C52.38 20.3948 48.6216 24.1538 43.92 24.1538C39.2184 24.1538 35.46 20.3948 35.46 15.6923C35.46 10.9898 39.2184 7.23077 43.92 7.23077Z" fill="#472723" fill-opacity="0.9"/>
<path d="M69.92 3C62.9405 3 57.23 8.71154 57.23 15.6923C57.23 19.8892 59.2964 23.625 62.4519 25.9392C56.8747 28.7062 53 34.4431 53 41.0769H57.23C57.23 34.0454 62.8897 28.3846 69.92 28.3846C76.9503 28.3846 82.61 34.0454 82.61 41.0769H86.84C86.84 34.0454 84.725 32.8798 84.725 32.8798C83.0361 29.8785 80.4782 27.4588 77.3881 25.9392C79.0029 24.7623 80.3174 23.2211 81.2247 21.4406C82.132 19.6601 82.6067 17.6907 82.61 15.6923C82.61 8.71154 76.8995 3 69.92 3ZM69.92 7.23077C74.6216 7.23077 78.38 10.9898 78.38 15.6923C78.38 20.3948 74.6216 24.1538 69.92 24.1538C65.2184 24.1538 61.46 20.3948 61.46 15.6923C61.46 10.9898 65.2184 7.23077 69.92 7.23077Z" fill="#472723" fill-opacity="0.9"/>
</svg>
