<svg width="45" height="45" viewBox="0 0 45 45" fill="none" xmlns="http://www.w3.org/2000/svg">
<path d="M35.625 41.25H9.375C8.87772 41.25 8.40081 41.0525 8.04918 40.7009C7.69754 40.3492 7.5 39.8723 7.5 39.375V24.375H3.75L21.1725 6.95067C21.3466 6.77634 21.5534 6.63804 21.7811 6.54368C22.0087 6.44932 22.2527 6.40076 22.4991 6.40076C22.7455 6.40076 22.9895 6.44932 23.2171 6.54368C23.4447 6.63804 23.6515 6.77634 23.8256 6.95067L41.25 24.375H37.5V39.375C37.5 39.8723 37.3025 40.3492 36.9508 40.7009C36.5992 41.0525 36.1223 41.25 35.625 41.25ZM18.75 37.5H26.25H33.75V22.1775L22.5 10.9275L11.25 22.1775V37.5H18.75Z" fill="#472723" fill-opacity="0.9"/>
</svg>
