<svg  viewBox="0 0 40 40" fill="none" xmlns="http://www.w3.org/2000/svg">
<path d="M15.2683 30.1235H24.7297M20.0001 1.77783V3.80252M32.8852 7.11492L31.4537 8.54637M38.2223 20.0001H36.1976M3.80252 20.0001H1.77783M8.54637 8.54637L7.11492 7.11492M12.8407 27.1594C11.4252 25.7435 10.4613 23.9396 10.0709 21.9759C9.68052 20.0123 9.88115 17.9769 10.6475 16.1272C11.4138 14.2776 12.7113 12.6967 14.376 11.5844C16.0408 10.4721 17.9979 9.87848 20.0001 9.87848C22.0022 9.87848 23.9593 10.4721 25.6241 11.5844C27.2888 12.6967 28.5864 14.2776 29.3527 16.1272C30.119 17.9769 30.3196 20.0123 29.9292 21.9759C29.5388 23.9396 28.5749 25.7435 27.1594 27.1594L26.0498 28.2669C25.4155 28.9013 24.9124 29.6545 24.5691 30.4834C24.2259 31.3123 24.0493 32.2006 24.0494 33.0978V34.1729C24.0494 35.2469 23.6228 36.2768 22.8634 37.0362C22.104 37.7956 21.074 38.2223 20.0001 38.2223C18.9261 38.2223 17.8961 37.7956 17.1367 37.0362C16.3773 36.2768 15.9507 35.2469 15.9507 34.1729V33.0978C15.9507 31.2857 15.2299 29.5465 13.9503 28.2669L12.8407 27.1594Z" stroke="#472723" stroke-opacity="0.9" stroke-width="2" stroke-linecap="round" stroke-linejoin="round"/>
</svg>
