<svg width="50" height="50" viewBox="0 0 45 45" fill="none" xmlns="http://www.w3.org/2000/svg">
<path d="M24.375 6.5625C24.375 5.81658 24.0787 5.10121 23.5512 4.57376C23.0238 4.04632 22.3084 3.75 21.5625 3.75C20.8166 3.75 20.1012 4.04632 19.5738 4.57376C19.0463 5.10121 18.75 5.81658 18.75 6.5625V18.75H6.5625C5.81658 18.75 5.10121 19.0463 4.57376 19.5738C4.04632 20.1012 3.75 20.8166 3.75 21.5625C3.75 22.3084 4.04632 23.0238 4.57376 23.5512C5.10121 24.0787 5.81658 24.375 6.5625 24.375H18.75V36.5625C18.75 37.3084 19.0463 38.0238 19.5738 38.5512C20.1012 39.0787 20.8166 39.375 21.5625 39.375C22.3084 39.375 23.0238 39.0787 23.5512 38.5512C24.0787 38.0238 24.375 37.3084 24.375 36.5625V24.375H36.5625C37.3084 24.375 38.0238 24.0787 38.5512 23.5512C39.0787 23.0238 39.375 22.3084 39.375 21.5625C39.375 20.8166 39.0787 20.1012 38.5512 19.5738C38.0238 19.0463 37.3084 18.75 36.5625 18.75H24.375V6.5625Z" fill="#472723" fill-opacity="0.72"/>
<path d="M24.875 6.5625C24.875 5.68397 24.526 4.84142 23.9048 4.22021C23.2836 3.59899 22.441 3.25 21.5625 3.25C20.684 3.25 19.8414 3.59899 19.2202 4.22021C18.599 4.84142 18.25 5.68397 18.25 6.5625V18.25H6.5625C5.68397 18.25 4.84142 18.599 4.22021 19.2202C3.59899 19.8414 3.25 20.684 3.25 21.5625C3.25 22.441 3.59899 23.2836 4.22021 23.9048C4.84142 24.526 5.68397 24.875 6.5625 24.875H18.25V36.5625C18.25 37.441 18.599 38.2836 19.2202 38.9048C19.8414 39.526 20.684 39.875 21.5625 39.875C22.441 39.875 23.2836 39.526 23.9048 38.9048C24.526 38.2836 24.875 37.441 24.875 36.5625V24.875H36.5625C37.441 24.875 38.2836 24.526 38.9048 23.9048C39.526 23.2836 39.875 22.441 39.875 21.5625C39.875 20.684 39.526 19.8414 38.9048 19.2202C38.2836 18.599 37.441 18.25 36.5625 18.25H24.875V6.5625Z" stroke="#472723" stroke-opacity="0.72"/>
</svg>
