<svg  viewBox="0 0 45 45" fill="none" xmlns="http://www.w3.org/2000/svg">
<path d="M21.1816 6.67969H23.8184C24.0527 6.67969 24.1699 6.79688 24.1699 7.03125V37.9688C24.1699 38.2031 24.0527 38.3203 23.8184 38.3203H21.1816C20.9473 38.3203 20.8301 38.2031 20.8301 37.9688V7.03125C20.8301 6.79688 20.9473 6.67969 21.1816 6.67969Z" fill="#472723" fill-opacity="0.9"/>
<path d="M23.8184 6.17969H21.1816C20.9874 6.17969 20.7498 6.22859 20.5644 6.41402C20.379 6.59946 20.3301 6.83699 20.3301 7.03125V37.9688C20.3301 38.163 20.379 38.4005 20.5644 38.586C20.7498 38.7714 20.9874 38.8203 21.1816 38.8203H23.8184C24.0126 38.8203 24.2502 38.7714 24.4356 38.586C24.621 38.4005 24.6699 38.163 24.6699 37.9688V7.03125C24.6699 6.83699 24.621 6.59946 24.4356 6.41402C24.2502 6.22859 24.0126 6.17969 23.8184 6.17969Z" stroke="#472723" stroke-opacity="0.9"/>
<path d="M7.73438 20.8301H37.2656C37.5 20.8301 37.6172 20.9473 37.6172 21.1816V23.8184C37.6172 24.0527 37.5 24.1699 37.2656 24.1699H7.73438C7.5 24.1699 7.38281 24.0527 7.38281 23.8184V21.1816C7.38281 20.9473 7.5 20.8301 7.73438 20.8301Z" fill="#472723" fill-opacity="0.9"/>
<path d="M37.2656 20.3301H7.73438C7.54012 20.3301 7.30258 20.379 7.11715 20.5644C6.93172 20.7498 6.88281 20.9874 6.88281 21.1816V23.8184C6.88281 24.0126 6.93172 24.2502 7.11715 24.4356C7.30258 24.621 7.54012 24.6699 7.73438 24.6699H37.2656C37.4599 24.6699 37.6974 24.621 37.8829 24.4356C38.0683 24.2502 38.1172 24.0126 38.1172 23.8184V21.1816C38.1172 20.9874 38.0683 20.7498 37.8829 20.5644C37.6974 20.379 37.4599 20.3301 37.2656 20.3301Z" stroke="#472723" stroke-opacity="0.9" stroke-miterlimit="11.4737"/>
</svg>
