<svg width="25" height="25" viewBox="0 0 45 45" fill="none" xmlns="http://www.w3.org/2000/svg">
<path d="M18.75 5.625V9.375M15 26.25H30H15ZM15 18.75H18.75H15ZM15 33.75H22.5H15ZM18.75 5.625H11.25C10.2554 5.625 9.30161 6.02009 8.59835 6.72335C7.89509 7.42661 7.5 8.38044 7.5 9.375V37.5C7.5 38.4946 7.89509 39.4484 8.59835 40.1516C9.30161 40.8549 10.2554 41.25 11.25 41.25H33.75C34.7446 41.25 35.6984 40.8549 36.4016 40.1516C37.1049 39.4484 37.5 38.4946 37.5 37.5V9.375C37.5 8.38044 37.1049 7.42661 36.4016 6.72335C35.6984 6.02009 34.7446 5.625 33.75 5.625H27.1875H18.75ZM18.75 5.625V1.875V5.625Z" stroke="#472723" stroke-opacity="0.9" stroke-width="3" stroke-linecap="round" stroke-linejoin="round"/>
</svg>
