<svg width="20" height="20" viewBox="0 0 45 45" fill="none" xmlns="http://www.w3.org/2000/svg">
<path d="M18.9844 32.3438C18.9844 32.3438 20.3906 33.75 22.5 33.75C24.6094 33.75 26.0156 32.3438 26.0156 32.3438H18.9844ZM32.3438 25.3125C32.3438 25.6855 32.1956 26.0431 31.9319 26.3069C31.6681 26.5706 31.3105 26.7188 30.9375 26.7188C30.5645 26.7188 30.2069 26.5706 29.9431 26.3069C29.6794 26.0431 29.5312 25.6855 29.5312 25.3125C29.5312 24.9395 29.6794 24.5819 29.9431 24.3181C30.2069 24.0544 30.5645 23.9062 30.9375 23.9062C31.3105 23.9062 31.6681 24.0544 31.9319 24.3181C32.1956 24.5819 32.3438 24.9395 32.3438 25.3125ZM15.4688 25.3125C15.4688 25.6855 15.3206 26.0431 15.0569 26.3069C14.7931 26.5706 14.4355 26.7188 14.0625 26.7188C13.6895 26.7188 13.3319 26.5706 13.0681 26.3069C12.8044 26.0431 12.6562 25.6855 12.6562 25.3125C12.6562 24.9395 12.8044 24.5819 13.0681 24.3181C13.3319 24.0544 13.6895 23.9062 14.0625 23.9062C14.4355 23.9062 14.7931 24.0544 15.0569 24.3181C15.3206 24.5819 15.4688 24.9395 15.4688 25.3125ZM40.7812 22.5C40.7812 32.5969 32.5969 40.7812 22.5 40.7812C12.4031 40.7812 4.21875 32.5969 4.21875 22.5C4.21875 12.4031 12.4031 4.21875 22.5 4.21875C32.5969 4.21875 40.7812 12.4031 40.7812 22.5Z" stroke="#472723" stroke-opacity="0.9" stroke-width="3" stroke-linecap="round" stroke-linejoin="round"/>
</svg>
