<svg width="41" height="31" viewBox="0 0 41 31" fill="none" xmlns="http://www.w3.org/2000/svg">
<path d="M33.9322 1.38554C34.6234 0.765276 35.5433 0.42237 36.4976 0.429177C37.452 0.435983 38.3662 0.791969 39.0473 1.42202C39.7285 2.05207 40.1234 2.9069 40.1486 3.80613C40.1738 4.70537 39.8275 5.57867 39.1825 6.24177L19.6042 29.3204C19.2675 29.6622 18.8612 29.9365 18.4095 30.1269C17.9578 30.3173 17.47 30.4198 16.9753 30.4285C16.4806 30.4371 15.9891 30.3516 15.5303 30.1771C15.0714 30.0026 14.6546 29.7427 14.3048 29.4129L1.32121 17.1752C0.95964 16.8577 0.669634 16.4747 0.468492 16.0492C0.267351 15.6237 0.159194 15.1644 0.150475 14.6987C0.141757 14.2329 0.232656 13.7703 0.417747 13.3384C0.602839 12.9064 0.878333 12.5141 1.22779 12.1847C1.57725 11.8553 1.99352 11.5956 2.45176 11.4212C2.91001 11.2467 3.40084 11.161 3.89497 11.1693C4.38911 11.1775 4.87642 11.2794 5.32785 11.469C5.77928 11.6586 6.18557 11.932 6.52248 12.2728L16.7975 21.9528L33.839 1.48729C33.8697 1.45168 33.9024 1.41771 33.9371 1.38554H33.9322Z" fill="#472723" fill-opacity="0.72"/>
</svg>
