<svg width="45" height="35" viewBox="0 0 45 35" fill="none" xmlns="http://www.w3.org/2000/svg">
<path d="M38.0051 1.11587C38.7827 0.392232 39.8175 -0.00782461 40.8912 0.000115985C41.9648 0.00805658 42.9933 0.423374 43.7596 1.15843C44.526 1.89349 44.9702 2.89079 44.9986 3.9399C45.0269 4.98901 44.6372 6.00786 43.9117 6.78148L21.8861 33.7066C21.5073 34.1053 21.0502 34.4253 20.5421 34.6474C20.0339 34.8696 19.4852 34.9892 18.9286 34.9993C18.3721 35.0094 17.8191 34.9096 17.3029 34.7061C16.7867 34.5025 16.3178 34.1993 15.9242 33.8145L1.31772 19.5372C0.910955 19.1667 0.584698 18.7199 0.358414 18.2235C0.132129 17.7271 0.0104526 17.1912 0.000644319 16.6478C-0.00916392 16.1045 0.0930974 15.5647 0.301326 15.0608C0.509554 14.5569 0.819484 14.0992 1.21263 13.7149C1.60577 13.3306 2.07407 13.0277 2.58959 12.8241C3.10512 12.6206 3.6573 12.5206 4.2132 12.5302C4.7691 12.5398 5.31734 12.6587 5.82519 12.8799C6.33305 13.1011 6.79012 13.42 7.16915 13.8176L18.7285 25.1111L37.9002 1.23458C37.9347 1.19304 37.9716 1.1534 38.0106 1.11587H38.0051Z" fill="#472723" fill-opacity="0.72"/>
</svg>
