<svg width="45" height="45" viewBox="0 0 45 45" fill="none" xmlns="http://www.w3.org/2000/svg">
<path d="M39.9727 37.5513L28.5601 26.1387C30.3311 23.8491 31.2891 21.0498 31.2891 18.1055C31.2891 14.5811 29.9136 11.2764 27.4263 8.78467C24.939 6.29297 21.6255 4.92188 18.1055 4.92188C14.5854 4.92188 11.272 6.29736 8.78467 8.78467C6.29297 11.272 4.92188 14.5811 4.92188 18.1055C4.92188 21.6255 6.29736 24.939 8.78467 27.4263C11.272 29.918 14.5811 31.2891 18.1055 31.2891C21.0498 31.2891 23.8447 30.3311 26.1343 28.5645L37.5469 39.9727C37.5803 40.0061 37.6201 40.0327 37.6638 40.0508C37.7075 40.0689 37.7544 40.0783 37.8018 40.0783C37.8491 40.0783 37.896 40.0689 37.9397 40.0508C37.9834 40.0327 38.0232 40.0061 38.0566 39.9727L39.9727 38.061C40.0061 38.0276 40.0327 37.9878 40.0508 37.9441C40.0689 37.9004 40.0783 37.8535 40.0783 37.8062C40.0783 37.7588 40.0689 37.7119 40.0508 37.6682C40.0327 37.6245 40.0061 37.5847 39.9727 37.5513ZM25.0664 25.0664C23.2031 26.9253 20.7334 27.9492 18.1055 27.9492C15.4775 27.9492 13.0078 26.9253 11.1445 25.0664C9.28565 23.2031 8.26172 20.7334 8.26172 18.1055C8.26172 15.4775 9.28565 13.0034 11.1445 11.1445C13.0078 9.28565 15.4775 8.26172 18.1055 8.26172C20.7334 8.26172 23.2075 9.28125 25.0664 11.1445C26.9253 13.0078 27.9492 15.4775 27.9492 18.1055C27.9492 20.7334 26.9253 23.2075 25.0664 25.0664Z" fill="#472723" fill-opacity="0.9"/>
<path d="M39.3788 37.806L37.8019 39.3792L26.5585 28.1401L26.1854 27.7672L25.7677 28.0894C23.5836 29.7747 20.9177 30.6891 18.1055 30.6891C14.7401 30.6891 11.5839 29.3812 9.20931 27.0024L9.20893 27.002C6.83394 24.627 5.52188 21.4661 5.52188 18.1055C5.52188 14.7401 6.82978 11.5839 9.20856 9.20931L9.20893 9.20893C11.5839 6.83394 14.7449 5.52188 18.1055 5.52188C21.4665 5.52188 24.6271 6.82985 27.0016 9.20856C29.3773 11.5884 30.6891 14.7409 30.6891 18.1055C30.6891 20.9179 29.7746 23.5879 28.0855 25.7716L27.7623 26.1894L28.1358 26.5629L39.3788 37.806ZM39.5485 37.9756C39.5482 37.9754 39.5479 37.9751 39.5477 37.9748L39.5484 37.9755L39.5485 37.9756ZM25.4902 25.4912L25.4907 25.4907C27.4622 23.5192 28.5492 20.8924 28.5492 18.1055C28.5492 15.3181 27.4619 12.6961 25.4912 10.7208C23.519 8.74398 20.8918 7.66172 18.1055 7.66172C15.3181 7.66172 12.6961 8.74905 10.7208 10.7198L10.7203 10.7203C8.74878 12.6918 7.66172 15.3185 7.66172 18.1055C7.66172 20.8928 8.74905 23.5148 10.7198 25.4902L10.7208 25.4912C12.6961 27.4619 15.3181 28.5492 18.1055 28.5492C20.8928 28.5492 23.5148 27.4619 25.4902 25.4912Z" stroke="#472723" stroke-opacity="0.9" stroke-width="1.2"/>
</svg>
