<svg width="20" height="20" viewBox="0 0 45 45" fill="none" xmlns="http://www.w3.org/2000/svg">
<path d="M26.7562 11.25C25.725 13.0312 26.3437 15.3375 28.125 16.3687C29.9062 17.4 32.2125 16.7812 33.2437 15C34.275 13.2187 33.6562 10.9125 31.875 9.88125C30.0937 8.85 27.7875 9.46875 26.7562 11.25Z" fill="#472723" fill-opacity="0.9"/>
<path d="M29.7001 19.5187L24.825 16.7062C20.3625 14.1187 18.825 8.3812 21.4125 3.9187L18.1688 2.0437C15.1875 7.1812 16.125 13.5187 19.9875 17.625L10.3313 34.35L13.575 36.225L16.3875 31.3499L19.6313 33.225L14.0063 42.975L17.25 44.85L29.0438 24.4312C30.124 25.897 30.7542 27.6456 30.8574 29.4635C30.9606 31.2814 30.5324 33.09 29.625 34.6687L32.8688 36.5437C35.8688 31.3875 35.2688 24.2062 29.7001 19.5187ZM23.9063 7.12495C25.2563 7.8937 26.9625 7.4437 27.75 6.0937C28.5188 4.7437 28.0688 3.03745 26.7188 2.24995C26.0731 1.89017 25.3118 1.79884 24.5994 1.99569C23.8869 2.19255 23.2805 2.66178 22.9111 3.30202C22.5418 3.94226 22.4391 4.70211 22.6253 5.41742C22.8115 6.13273 23.2716 6.74608 23.9063 7.12495Z" fill="#472723" fill-opacity="0.9"/>
</svg>
